# xmcd CD database file
#
# Track frame offsets:
#	150
#	18780
#	54247
#	84877
#	85881
#	109768
#	130869
#	169019
#	190869
#	248573
#
# Disc length: 3486 seconds
#
# Revision: 0
# Processed by: cddbd v1.5.1PL2 Copyright (c) Steve Scherf et al.
# Submitted via: CDex 1.51
#
DISCID=6a0d9c0a
DTITLE=Gerry Mulligan - Jazz Casual
DYEAR=1900
DGENRE=Jazz
TTITLE0=Four For Three - Gerry Mulligan Quartet
TTITLE1=Interview - Gerry Mulligan Quartet
TTITLE2=Darn That Dream - Gerry Mulligan Quartet
TTITLE3=Gerry Speaks - Gerry Mulligan Quartet
TTITLE4=Open Country - Gerry Mulligan Quartet
TTITLE5=Utter Chaos - Gerry Mulligan Quartet
TTITLE6=The Trip - Art Pepper Quartet
TTITLE7=Interview - Art Pepper Quartet
TTITLE8=D Section - Art Pepper Quartet
TTITLE9=Untitled - Art Pepper Quartet
EXTD=
EXTT0=
EXTT1=
EXTT2=
EXTT3=
EXTT4=
EXTT5=
EXTT6=
EXTT7=
EXTT8=
EXTT9=
PLAYORDER=
